<?xml version="1.0" encoding="UTF-8"?>
<svg id="Layer_1" data-name="Layer 1" xmlns="http://www.w3.org/2000/svg" viewBox="0 0 582.89 113.95">
  <defs>
    <style>
      .cls-11 {
        fill: #5558fa;
      }
    </style>
  </defs>
  <g>
    <path class="cls-11" d="M387.11,81.13h-5.37l-5.23,11.82h5.34c2.12,0,3.6-1.24,5.21-4.81l1.27-2.88c.56-1.24,.85-2.17,.85-2.78,0-1-.71-1.35-2.06-1.35Z"/>
    <path class="cls-11" d="M487.88,72.52h-222.85c-.79,0-1.39,.42-1.76,1.21l-11.62,26.62c-.09,.28-.14,.46-.14,.7,0,.37,.28,.56,.84,.56h222.9c.79,0,1.39-.42,1.76-1.25l11.57-26.62c.14-.23,.19-.42,.19-.6,0-.42-.28-.6-.88-.6Zm-200.6,17.18h-9.86c-.32,0-.48-.13-.48-.34,0-.11,0-.24,.08-.37l.77-1.69c.21-.48,.53-.71,1-.71h3.36c2.56,0,4.52-1.37,4.52-3.73,0-1.14-.85-1.72-2.09-1.72h-5.66l-6.32,14.22c-.21,.48-.56,.71-1.03,.71h-9.07c-.32,0-.48-.11-.48-.32,0-.13,.03-.24,.08-.4l7.43-16.63c.21-.45,.53-.69,1-.69h22.58c2.59,0,4.2,1.4,4.2,3.78,0,4.76-4.89,7.88-10.05,7.88Zm36.96-1.96l3.99,7.48c.03,.05,.05,.16,.05,.24,0,.29-.29,.61-.71,.61h-8.83c-.69,0-1.19-.21-1.45-.71l-4.42-8.38c-.11-.16-.19-.29-.19-.5,0-.11,.05-.26,.16-.48l.29-.61c.21-.45,.53-.69,1-.69h3.6c2.3,0,3.49-1.11,3.49-2.38,0-.74-.61-1.19-1.9-1.19h-5.9l-6.35,14.22c-.21,.48-.53,.71-1,.71h-9.07c-.32,0-.5-.11-.5-.32,0-.13,.03-.24,.11-.4l7.43-16.63c.21-.45,.53-.69,1-.69h23.11c2.46,0,3.97,1.3,3.97,3.2,0,3.46-3.57,5.98-7.88,6.5Zm39.12-2.56l-.98,2.14c-.13,.32-.45,.48-.9,.48h-12.64c-.32,0-.48-.11-.48-.32,0-.11,.03-.24,.11-.37l.74-1.72c.21-.45,.56-.69,1.03-.69h12.61c.37,0,.56,.08,.56,.26,0,.05-.03,.13-.05,.21Zm-11.02-4.05c-2.27,0-3.52,.87-4.94,4.12l-1.27,2.88c-.66,1.48-1,2.54-1,3.3,0,1.08,.69,1.51,1.96,1.51h12.4c.32,0,.48,.13,.48,.34,0,.08-.03,.24-.11,.37l-.74,1.69c-.21,.48-.56,.71-1.03,.71h-18.56c-3.6,0-5.63-2.38-5.63-5.71,0-6.16,6.69-12.32,13.67-12.32h18.48c.32,0,.48,.11,.48,.34,0,.11-.03,.21-.08,.34l-.77,1.69c-.21,.48-.56,.71-1.03,.71h-12.29Zm34.25,14.94h-21.26c-.32,0-.48-.11-.48-.32,0-.13,.03-.24,.08-.4l7.43-16.63c.21-.45,.53-.69,1-.69h21.26c3.7,0,5.66,2.38,5.66,5.63,0,6.45-7.03,12.4-13.69,12.4Zm23.37,0h-9.12c-.32,0-.48-.11-.48-.32,0-.13,.03-.24,.08-.4l7.43-16.63c.21-.45,.56-.69,1-.69h9.09c.34,0,.5,.11,.5,.34,0,.11-.03,.21-.11,.34l-7.4,16.63c-.21,.48-.56,.71-1,.71Zm40.25-17.34l-.77,1.69c-.21,.48-.56,.71-1.03,.71h-11.82c-2.27,0-3.52,.87-4.94,4.12l-1.27,2.88c-.66,1.48-1,2.54-1,3.3,0,1.08,.69,1.51,1.96,1.51h11.92c.34,0,.48,.13,.48,.34,0,.08-.03,.24-.11,.37l-.74,1.69c-.21,.48-.56,.71-1,.71h-18.11c-3.6,0-5.63-2.38-5.63-5.71,0-6.16,6.69-12.32,13.67-12.32h18c.32,0,.48,.11,.48,.34,0,.11,0,.21-.08,.34Zm32.15-.34l-1.08,2.46c-.11,.21-.32,.29-.63,.29h-7.77l-6.48,14.59c-.11,.24-.32,.34-.63,.34h-9.49c-.24,0-.4-.08-.4-.19,0-.05,.03-.11,.05-.16l6.48-14.59h-7.72c-.26,0-.37-.05-.37-.19v-.11l1.08-2.46c.13-.24,.34-.34,.66-.34h25.96c.24,0,.37,.05,.37,.18,0,.05-.03,.11-.03,.16Z"/>
  </g>
</svg>